<svg xmlns="http://www.w3.org/2000/svg" width="292" height="293" viewBox="0 0 292 293" fill="none"><path d="M34.6886 249.754C34.6886 249.754 67.5939 286.846 120.111 285.425C172.628 284.004 217.643 248.638 254.865 220.951C292.087 193.264 302.339 149.923 281.016 115.887C259.693 81.8428 225.329 95.8775 181.819 73.5764C138.309 51.2754 130.104 38.7306 81.4298 43.7424C32.7557 48.7542 -4.6496 103.204 0.469175 161.512C5.60323 219.821 34.6886 249.754 34.6886 249.754Z" fill="#C6FF00"></path><path d="M34.6886 249.754C34.6886 249.754 67.5939 286.846 120.111 285.425C172.628 284.004 217.643 248.638 254.865 220.951C292.087 193.264 302.339 149.923 281.016 115.887C259.693 81.8428 225.329 95.8775 181.819 73.5764C138.309 51.2754 130.104 38.7306 81.4298 43.7424C32.7557 48.7542 -4.6496 103.204 0.469175 161.512C5.60323 219.821 34.6886 249.754 34.6886 249.754Z" fill="#F2D777"></path><path d="M145.752 195.556V90.6589C145.752 88.3442 147.632 86.4648 149.947 86.4648H195.083C197.398 86.4648 199.278 88.3442 199.278 90.6589V195.556C199.278 197.871 197.398 199.75 195.083 199.75H149.947C147.632 199.743 145.752 197.871 145.752 195.556Z" fill="#257B99"></path><path d="M195.076 86.4648H149.946C147.631 86.4648 145.752 88.3443 145.752 90.6592V93.2186H199.262V90.6592C199.262 88.3443 197.39 86.4648 195.076 86.4648Z" fill="#6FD2ED"></path><path d="M183.119 98.7577H148.892V154.675H183.119V98.7577Z" fill="#263238" stroke="#263238" stroke-width="0.764775" stroke-miterlimit="10" stroke-linecap="round" stroke-linejoin="round"></path><path d="M145.759 193.722V195.556C145.759 197.871 147.638 199.75 149.953 199.75H195.083C197.398 199.75 199.277 197.871 199.277 195.556V193.722H145.759Z" fill="#6FD2ED"></path><path d="M179.98 182.156H169.375V193.722H179.98V182.156Z" stroke="#263238" stroke-width="0.764775" stroke-miterlimit="10" stroke-linecap="round" stroke-linejoin="round"></path><path d="M177.573 182.156C177.573 180.421 176.167 179.023 174.44 179.023C172.714 179.023 171.308 180.429 171.308 182.156C171.308 183.89 172.714 185.288 174.44 185.288C176.167 185.288 177.573 183.882 177.573 182.156Z" stroke="#263238" stroke-width="0.764775" stroke-miterlimit="10" stroke-linecap="round" stroke-linejoin="round"></path><path d="M173.478 179.023V154.675" stroke="#263238" stroke-width="0.764775" stroke-miterlimit="10" stroke-linecap="round" stroke-linejoin="round"></path><path d="M158.771 161.91H148.892V174.447H158.771V161.91Z" stroke="#263238" stroke-width="0.764775" stroke-miterlimit="10" stroke-linecap="round" stroke-linejoin="round"></path><path d="M184.319 193.722H174.678V199.75H184.319V193.722Z" fill="#263238"></path><path d="M172.4 111.157H167.266L161.269 125.039H165.601L160.505 138.661L172.224 121.471H167.64L172.4 111.157Z" fill="#EDE16F"></path><path d="M75.2266 206.596H83.0881V260.106H75.2266C72.9117 260.106 71.0322 258.226 71.0322 255.912V210.782C71.0399 208.467 72.9117 206.596 75.2266 206.596Z" fill="#257B99"></path><path d="M228.322 206.596H220.461V229.622C221.21 229.088 222.126 228.774 223.112 228.774C225.641 228.774 227.688 230.822 227.688 233.351C227.688 235.88 225.641 237.927 223.112 237.927C222.126 237.927 221.21 237.614 220.461 237.079V260.106H228.322C230.637 260.106 232.517 258.226 232.517 255.912V210.782C232.509 208.467 230.637 206.596 228.322 206.596Z" fill="#257B99"></path><path d="M203.51 260.106H98.6055C96.2906 260.106 94.4111 258.227 94.4111 255.912V210.782C94.4111 208.467 96.2906 206.588 98.6055 206.588H203.51C205.825 206.588 207.704 208.467 207.704 210.782V255.912C207.704 258.227 205.825 260.106 203.51 260.106Z" fill="#263238" stroke="#263238" stroke-width="0.764775" stroke-miterlimit="10" stroke-linecap="round" stroke-linejoin="round"></path><path d="M202.203 258.907H99.9111C97.5962 258.907 95.7168 257.027 95.7168 254.712V211.982C95.7168 209.667 97.5962 207.788 99.9111 207.788H202.203C204.517 207.788 206.397 209.667 206.397 211.982V254.712C206.397 257.027 204.517 258.907 202.203 258.907Z" fill="#6FD2ED" stroke="#263238" stroke-width="0.764775" stroke-miterlimit="10" stroke-linecap="round" stroke-linejoin="round"></path><path d="M179.26 257.455H103.754C101.263 257.455 99.2388 255.43 99.2388 252.94V214.251C99.2388 211.76 101.263 209.736 103.754 209.736H179.26V257.455Z" fill="#1D3138" stroke="#263238" stroke-width="0.764775" stroke-miterlimit="10" stroke-linecap="round" stroke-linejoin="round"></path><path d="M200.713 236.239C202.443 236.239 203.846 234.836 203.846 233.106C203.846 231.376 202.443 229.974 200.713 229.974C198.983 229.974 197.581 231.376 197.581 233.106C197.581 234.836 198.983 236.239 200.713 236.239Z" fill="#1D3138" stroke="#263238" stroke-width="0.764775" stroke-miterlimit="10" stroke-linecap="round" stroke-linejoin="round"></path><path d="M183.836 248.295H181.666V257.455H183.836V248.295Z" stroke="#1D3138" stroke-width="0.764775" stroke-miterlimit="10" stroke-linecap="round" stroke-linejoin="round"></path><path d="M183.836 234.313H181.666V243.474H183.836V234.313Z" stroke="#1D3138" stroke-width="0.764775" stroke-miterlimit="10" stroke-linecap="round" stroke-linejoin="round"></path><path d="M122.534 161.146H101.111V159.984C101.111 159.35 100.599 158.838 99.9653 158.838C99.3312 158.838 98.8193 159.35 98.8193 159.984V178.305C98.8193 178.939 99.3312 179.451 99.9653 179.451C100.599 179.451 101.111 178.939 101.111 178.305V176.655H122.534C124.062 176.655 125.307 175.409 125.307 173.881V163.926C125.307 162.391 124.062 161.146 122.534 161.146ZM101.104 162.674H115.581V175.127H101.104V162.674ZM123.779 173.874C123.779 174.561 123.221 175.119 122.534 175.119H117.117V162.666H122.534C123.221 162.666 123.779 163.224 123.779 163.911V173.874Z" fill="#1D3138"></path><path d="M109.888 136.117H100.927V155.156H116.589V142.267L109.888 136.117Z" fill="#263238"></path><path d="M110.921 152.382H105.245C104.183 152.382 103.327 151.519 103.327 150.465V143.657C103.327 142.596 104.191 141.74 105.245 141.74H110.921C111.983 141.74 112.839 142.603 112.839 143.657V150.465C112.847 151.527 111.983 152.382 110.921 152.382Z" fill="#EDE16F" stroke="#1D3138" stroke-width="0.764775" stroke-miterlimit="10" stroke-linecap="round" stroke-linejoin="round"></path><path d="M107.995 141.923V152.39" stroke="#1D3138" stroke-width="0.764775" stroke-miterlimit="10" stroke-linecap="round" stroke-linejoin="round"></path><path d="M103.326 147.256H112.746" stroke="#1D3138" stroke-width="0.764775" stroke-miterlimit="10" stroke-linecap="round" stroke-linejoin="round"></path><path d="M105.611 152.298V149.922C105.611 148.608 106.68 147.539 107.994 147.539H108.078C109.392 147.539 110.462 148.608 110.462 149.922V152.382" stroke="#1D3138" stroke-width="0.764775" stroke-miterlimit="10" stroke-linecap="round" stroke-linejoin="round"></path><path d="M110.47 142.282V144.658C110.47 145.972 109.401 147.042 108.087 147.042H108.003C106.688 147.042 105.619 145.972 105.619 144.658V142.198" stroke="#1D3138" stroke-width="0.764775" stroke-miterlimit="10" stroke-linecap="round" stroke-linejoin="round"></path><path d="M249.938 257.677C249.618 257.677 249.358 257.425 249.358 257.104L248.792 224.825H251.084L250.519 257.104C250.519 257.417 250.259 257.677 249.938 257.677Z" fill="#808080"></path><path d="M257.433 135.261H242.466L245.644 174.133H245.652V214.19H254.255V174.133H254.262L257.433 135.261Z" fill="#263238" stroke="#263238" stroke-width="0.764775" stroke-miterlimit="10" stroke-linecap="round" stroke-linejoin="round"></path><path d="M257.524 124.023H242.374V135.223H257.524V124.023Z" fill="#079FCA"></path><path d="M252.001 227.499H247.898L245.759 214.251H254.14L252.001 227.499Z" fill="#079FCA"></path><path d="M54.1553 135.903C51.8633 133.611 53.5823 160.924 52.2453 173.53C50.9083 186.136 47.2793 204.281 43.8414 216.123C40.4034 227.965 42.1224 231.593 42.1224 231.593C42.1224 231.593 41.8932 231.769 41.5952 232.021C41.2896 231.762 41.0681 231.593 41.0681 231.593C41.0681 231.593 42.787 227.965 39.3491 216.123C35.9111 204.281 32.2821 186.136 30.9451 173.53C29.6081 160.924 31.3271 133.611 29.0351 135.903C29.0351 135.903 27.3161 174.867 30.1811 191.293C33.0461 207.719 36.8661 225.291 38.2031 234.84C39.2727 242.465 39.2421 252.168 39.1886 255.759C39.1733 256.546 39.8151 257.187 40.5944 257.187H42.596C43.383 257.187 44.0171 256.546 44.0018 255.759C43.9483 252.16 43.9178 242.465 44.9874 234.84C46.3243 225.291 50.1443 207.719 53.0093 191.293C55.8743 174.867 54.1553 135.903 54.1553 135.903Z" fill="#1D3138" stroke="#263238" stroke-width="0.764775" stroke-miterlimit="10" stroke-linecap="round" stroke-linejoin="round"></path><path d="M233.49 114.908C233.49 114.908 229.876 118.041 228.425 121.655C226.981 125.268 227.217 128.882 223.604 130.089C219.99 131.296 217.82 130.089 217.82 130.089C217.82 130.089 220.716 122.862 222.397 120.447C224.093 118.041 233.49 114.908 233.49 114.908Z" fill="#E7AC92"></path><path d="M233.49 114.908C233.49 114.908 229.876 118.041 228.425 121.655C226.981 125.268 227.217 128.882 223.604 130.089C219.99 131.296 217.82 130.089 217.82 130.089C217.82 130.089 220.716 122.862 222.397 120.447C224.093 118.041 233.49 114.908 233.49 114.908Z" stroke="#E7AC92" stroke-width="0.764775" stroke-miterlimit="10" stroke-linecap="round" stroke-linejoin="round"></path><path d="M224.718 8.52954C224.718 8.52954 215.65 31.9919 212.036 38.5011C208.422 45.0104 203.838 46.9356 198.536 49.1054C193.234 51.2751 178.29 60.6723 176.846 64.2936C175.402 67.9073 173.714 78.7561 172.27 82.3698C170.826 85.9835 167.93 87.9164 163.591 89.1158C159.251 90.323 154.675 91.0411 155.393 93.2109C156.111 95.3806 163.11 96.8246 170.093 95.8619C177.083 94.8993 179.734 92.9664 181.904 90.0785C184.074 87.1829 187.687 80.9182 189.131 80.2C190.575 79.4742 190.575 79.4742 190.575 79.4742C190.575 79.4742 190.331 105.267 190.82 108.399C191.301 111.531 188.65 122.38 183.348 135.391C178.046 148.402 181.904 157.081 183.592 158.769C185.281 160.458 188.658 160.458 189.376 159.732C190.102 159.006 189.62 149.365 191.064 143.1C192.508 136.835 200.943 120.203 203.357 116.826C205.764 113.449 208.422 108.391 208.422 108.391C208.422 108.391 207.215 118.759 202.394 131.288C197.573 143.826 192.516 152.016 191.546 155.629C190.583 159.243 194.197 161.413 196.366 160.45C198.536 159.488 203.112 149.846 204.801 146.469C206.489 143.092 211.31 134.902 211.31 134.902C211.31 134.902 215.405 135.628 218.301 132.007C221.196 128.393 225.773 120.921 225.773 120.921C225.773 120.921 232.519 117.307 233.489 114.893C234.452 112.486 236.14 89.1006 237.584 80.9105C239.028 72.7129 243.131 55.118 245.3 48.1275C247.47 41.1369 263.285 10.9285 263.285 10.9285" fill="#F8D6C7"></path><path d="M181.913 90.0784C184.083 87.1829 187.696 80.9181 189.14 80.2C190.584 79.4742 190.584 79.4742 190.584 79.4742C190.584 79.4742 186.986 72.5295 183.426 77.6253C179.858 82.7212 174.77 90.3611 170.186 90.8654C167.007 91.2168 164.081 90.3535 161.056 89.7805C157.664 90.6591 154.814 91.4689 155.402 93.2108C156.128 95.3806 163.119 96.8245 170.102 95.8619C177.092 94.8993 179.743 92.974 181.913 90.0784Z" fill="#E7AC92"></path><path d="M180.675 147.401C180.507 153.65 182.509 157.684 183.602 158.777C185.29 160.465 188.667 160.465 189.385 159.739C190.111 159.014 189.63 149.372 191.073 143.107C192.517 136.842 200.952 120.21 203.366 116.833C205.773 113.457 208.431 108.399 208.431 108.399C208.431 108.399 202.786 118.881 196.674 124.993C191.257 130.41 183.449 136.224 180.675 147.401Z" fill="#E7AC92"></path><path d="M253.21 30.7693C253.21 30.7693 247.61 40.9534 236.914 55.2172C226.218 69.481 225.706 87.305 224.178 94.945C222.65 102.585 223.666 109.713 218.066 117.865C212.466 126.017 208.898 132.633 208.898 132.633L208.432 108.399C208.432 108.399 207.225 118.766 202.404 131.296C197.584 143.833 192.526 152.023 191.556 155.637C190.585 159.251 194.207 161.42 196.376 160.458C198.546 159.495 203.122 149.853 204.811 146.477C206.499 143.1 211.32 134.91 211.32 134.91C211.32 134.91 215.415 135.635 218.311 132.014C221.206 128.4 225.783 120.928 225.783 120.928C225.783 120.928 232.529 117.315 233.499 114.901C234.462 112.494 236.15 89.108 237.594 80.918C239.038 72.7203 243.141 55.1255 245.31 48.1349C246.311 44.9032 249.795 37.6987 253.241 30.8839L253.21 30.7693Z" fill="#E7AC92"></path><path d="M209.911 104.617C209.911 104.617 211.951 103.601 212.455 100.033C212.967 96.4654 212.967 93.4094 212.967 93.4094" stroke="#522612" stroke-width="0.764775" stroke-miterlimit="10" stroke-linecap="round" stroke-linejoin="round"></path><path d="M211.317 134.91C211.317 134.91 218.789 121.41 219.996 120.692C221.203 119.966 225.061 117.796 225.298 114.427C225.543 111.05 225.78 106.955 225.78 106.955" stroke="#522612" stroke-width="0.764775" stroke-miterlimit="10" stroke-linecap="round" stroke-linejoin="round"></path><path d="M148.747 112.685H113.137V116.757H148.747V112.685Z" fill="white" stroke="#263238" stroke-width="0.764775" stroke-miterlimit="10" stroke-linecap="round" stroke-linejoin="round"></path><path d="M81.8576 10.3708C81.8576 10.3708 90.0782 39.7007 91.7666 43.322C93.4551 46.9357 102.615 52.7191 104.304 60.6723C105.992 68.6255 108.162 72.0024 110.087 78.0303C112.013 84.0583 113.701 84.0583 110.813 89.1159C107.918 94.1812 107.436 97.3136 109.369 100.446C111.294 103.578 121.18 107.673 119.973 110.088C118.766 112.494 117.567 113.22 116.597 113.22C115.634 113.22 115.634 113.22 115.634 113.22C115.634 113.22 117.804 121.173 116.597 124.069C115.389 126.964 112.501 128.89 111.531 127.446C110.569 126.002 108.88 123.832 108.88 123.832C108.88 123.832 110.805 127.69 108.399 128.171C105.992 128.653 105.503 127.927 101.89 126.246C98.2759 124.565 90.0782 122.869 90.0782 122.869C90.0782 122.869 80.4366 126.727 77.3042 127.69C74.1718 128.653 70.3136 127.446 70.3136 127.446C70.3136 127.446 59.9462 131.541 58.2654 128.171C56.577 124.795 55.3699 110.813 54.6517 108.162C53.9259 105.511 51.5193 103.342 52.0006 99.2465C52.482 95.1515 53.6891 92.7373 53.9259 91.0488C54.1704 89.3604 60.4352 58.7471 60.4352 52.001C60.4352 45.2549 48.6238 11.5092 48.6238 11.5092" fill="#F8D6C7"></path><path d="M76.9782 123.465C71.8823 124.481 67.9019 124.55 67.9019 124.55C67.9019 124.55 68.07 130.318 58.2603 128.164C59.9487 131.541 70.3085 127.438 70.3085 127.438C70.3085 127.438 74.1667 128.645 77.299 127.683C80.4314 126.72 90.073 122.862 90.073 122.862C90.073 122.862 98.2707 124.55 101.884 126.239C105.498 127.927 105.979 128.645 108.394 128.164C110.8 127.683 108.875 123.824 108.875 123.824C108.875 123.824 110.563 125.994 111.526 127.438C112.489 128.882 115.384 126.957 116.591 124.061C117.798 121.166 115.629 113.213 115.629 113.213C115.629 113.213 115.629 113.213 116.591 113.213C117.554 113.213 118.761 112.487 119.968 110.08C121.175 107.674 111.289 103.571 109.364 100.439C107.439 97.3061 107.92 94.1738 110.808 89.1085C113.703 84.0432 112.015 84.0432 110.082 78.0229C108.157 71.995 105.987 68.6257 104.299 60.6649C102.771 53.4604 95.1231 48.0437 92.4338 44.3994C94.1604 48.8459 96.4753 53.8959 99.3862 58.2659C106.514 68.9619 107.026 79.146 104.986 84.7537C102.946 90.3538 100.914 94.9378 100.914 94.9378L93.7861 79.1536C93.7861 79.1536 94.8022 94.4335 96.8421 98.0014C98.8819 101.569 99.898 105.641 103.466 108.697C107.034 111.753 112.122 115.321 108.05 115.321C103.978 115.321 93.2131 114.427 93.2131 114.427C93.2131 114.427 94.298 118.377 88.6902 118.377C83.0901 118.377 76.9782 116.849 76.9782 116.849C76.9782 116.849 82.074 122.449 76.9782 123.465Z" fill="#C6FF00"></path><path d="M76.9782 123.465C71.8823 124.481 67.9019 124.55 67.9019 124.55C67.9019 124.55 68.07 130.318 58.2603 128.164C59.9487 131.541 70.3085 127.438 70.3085 127.438C70.3085 127.438 74.1667 128.645 77.299 127.683C80.4314 126.72 90.073 122.862 90.073 122.862C90.073 122.862 98.2707 124.55 101.884 126.239C105.498 127.927 105.979 128.645 108.394 128.164C110.8 127.683 108.875 123.824 108.875 123.824C108.875 123.824 110.563 125.994 111.526 127.438C112.489 128.882 115.384 126.957 116.591 124.061C117.798 121.166 115.629 113.213 115.629 113.213C115.629 113.213 115.629 113.213 116.591 113.213C117.554 113.213 118.761 112.487 119.968 110.08C121.175 107.674 111.289 103.571 109.364 100.439C107.439 97.3061 107.92 94.1738 110.808 89.1085C113.703 84.0432 112.015 84.0432 110.082 78.0229C108.157 71.995 105.987 68.6257 104.299 60.6649C102.771 53.4604 95.1231 48.0437 92.4338 44.3994C94.1604 48.8459 96.4753 53.8959 99.3862 58.2659C106.514 68.9619 107.026 79.146 104.986 84.7537C102.946 90.3538 100.914 94.9378 100.914 94.9378L93.7861 79.1536C93.7861 79.1536 94.8022 94.4335 96.8421 98.0014C98.8819 101.569 99.898 105.641 103.466 108.697C107.034 111.753 112.122 115.321 108.05 115.321C103.978 115.321 93.2131 114.427 93.2131 114.427C93.2131 114.427 94.298 118.377 88.6902 118.377C83.0901 118.377 76.9782 116.849 76.9782 116.849C76.9782 116.849 82.074 122.449 76.9782 123.465Z" fill="#E7AC92"></path><path d="M92.2488 70.7954C92.2488 70.7954 96.107 86.9463 98.2767 92.4853C100.446 98.0319 102.616 103.815 105.023 105.985C107.429 108.155 114.664 112.013 115.627 113.212" stroke="#522612" stroke-width="0.764775" stroke-miterlimit="10" stroke-linecap="round" stroke-linejoin="round"></path><path d="M75.6165 88.879C75.6165 88.879 91.0415 111.05 93.2113 114.427C95.381 117.804 101.89 117.804 103.579 119.248C105.267 120.692 108.881 123.824 108.881 123.824" stroke="#522612" stroke-width="0.764775" stroke-miterlimit="10" stroke-linecap="round" stroke-linejoin="round"></path><path d="M60.9084 95.1439C60.9084 95.1439 67.4177 103.097 72.7198 111.05C78.022 119.004 78.5033 120.929 81.1543 121.655C83.8054 122.38 90.0702 122.862 90.0702 122.862" stroke="#522612" stroke-width="0.764775" stroke-miterlimit="10" stroke-linecap="round" stroke-linejoin="round"></path><path d="M55.8513 107.437C55.8513 107.437 66.9369 122.38 67.8995 124.55C68.8622 126.72 70.3061 127.446 70.3061 127.446" stroke="#522612" stroke-width="0.764775" stroke-miterlimit="10" stroke-linecap="round" stroke-linejoin="round"></path><path d="M75.3713 73.4464C75.3713 73.4464 70.3061 76.0975 71.0319 78.2672C71.7576 80.437 72.9571 82.6067 72.9571 82.6067" stroke="#522612" stroke-width="0.764775" stroke-miterlimit="10" stroke-linecap="round" stroke-linejoin="round"></path><path d="M61.8801 81.6442C61.8801 81.6442 57.3038 83.0881 57.0593 85.7392C56.8148 88.3903 58.0219 90.56 58.0219 90.56" stroke="#522612" stroke-width="0.764775" stroke-miterlimit="10" stroke-linecap="round" stroke-linejoin="round"></path></svg>